# This file uses centimeters as units for non-parametric coordinates.

mtllib GrassSM.mtl
g default
v 0.114383 0.000000 0.189103
v -0.025812 0.000000 0.253689
v 0.100219 0.000000 0.342809
v 0.139728 0.497916 0.402871
v 0.118567 0.285227 0.257088
v 0.023044 0.284321 0.299747
v 0.101887 0.204511 0.319686
v -0.091769 0.000000 -0.038347
v 0.151375 0.000000 -0.135903
v -0.054683 0.000000 -0.297695
v -0.116547 0.845102 -0.402871
v -0.093079 0.484109 -0.153946
v 0.072476 0.482572 -0.218133
v -0.059479 0.347111 -0.258641
v -0.025125 0.000000 0.277946
v -0.038564 0.000000 0.016305
v -0.258432 0.000000 0.158764
v -0.377986 0.845102 0.183180
v -0.134902 0.484109 0.241699
v -0.141935 0.482572 0.064276
v -0.223044 0.347111 0.175964
v 0.014939 0.000000 -0.043308
v 0.123299 0.000000 0.195218
v 0.275689 0.000000 -0.017887
v 0.377986 0.845102 -0.084405
v 0.130364 0.484109 -0.049800
v 0.201908 0.482572 0.112711
v 0.236460 0.347111 -0.020927
vt 0.135884 0.351222
vt 0.056658 0.077692
vt 0.333155 0.145845
vt 0.667389 0.566335
vt 0.570247 0.668821
vt 0.577746 0.000000
vt 0.785584 0.486477
vt 0.000000 0.601484
vt 0.494447 0.789576
vt 0.996705 0.980640
vt 0.135884 0.351222
vt 0.056658 0.077692
vt 0.333155 0.145845
vt 0.667389 0.566335
vt 0.570247 0.668821
vt 0.577746 0.000000
vt 0.785584 0.486477
vt 0.000000 0.601484
vt 0.494447 0.789576
vt 0.996705 0.980640
vt 0.135884 0.351222
vt 0.056658 0.077692
vt 0.333155 0.145845
vt 0.667389 0.566335
vt 0.570247 0.668821
vt 0.577746 0.000000
vt 0.785584 0.486477
vt 0.000000 0.601484
vt 0.494447 0.789576
vt 0.996705 0.980640
vt 0.135884 0.351222
vt 0.056658 0.077692
vt 0.333155 0.145845
vt 0.667389 0.566335
vt 0.570247 0.668821
vt 0.577746 0.000000
vt 0.785584 0.486477
vt 0.000000 0.601484
vt 0.494447 0.789576
vt 0.996705 0.980640
vn 0.000000 -1.000000 0.000000
vn 0.000000 -1.000000 0.000000
vn 0.000000 -1.000000 0.000000
vn -0.405067 0.215629 -0.888496
vn -0.405067 0.215629 -0.888496
vn -0.405067 0.215629 -0.888496
vn -0.405067 0.215629 -0.888496
vn -0.467793 0.006883 0.883811
vn -0.467793 0.006883 0.883811
vn -0.467793 0.006883 0.883811
vn -0.467793 0.006883 0.883811
vn 0.990912 -0.023968 0.132357
vn 0.990912 -0.023968 0.132357
vn 0.990912 -0.023968 0.132357
vn 0.990912 -0.023968 0.132357
vn -0.343865 0.553928 -0.758236
vn -0.343865 0.553928 -0.758236
vn -0.343865 0.553928 -0.758236
vn -0.422542 -0.196364 0.884816
vn -0.422542 -0.196364 0.884816
vn -0.422541 -0.196364 0.884816
vn 0.986379 -0.147726 0.072350
vn 0.986378 -0.147726 0.072350
vn 0.986378 -0.147726 0.072350
vn 0.000000 -1.000000 0.000000
vn 0.000000 -1.000000 0.000000
vn 0.000000 -1.000000 0.000000
vn 0.360027 0.215627 0.907682
vn 0.360027 0.215627 0.907682
vn 0.360027 0.215627 0.907682
vn 0.360027 0.215627 0.907682
vn 0.511503 0.006883 -0.859254
vn 0.511503 0.006883 -0.859254
vn 0.511503 0.006883 -0.859254
vn 0.511503 0.006883 -0.859254
vn -0.983033 -0.023967 -0.181856
vn -0.983033 -0.023967 -0.181856
vn -0.983033 -0.023967 -0.181856
vn -0.983033 -0.023967 -0.181856
vn 0.305430 0.553929 0.774516
vn 0.305430 0.553929 0.774516
vn 0.305430 0.553929 0.774516
vn 0.466363 -0.196363 -0.862524
vn 0.466363 -0.196363 -0.862524
vn 0.466363 -0.196363 -0.862524
vn -0.981513 -0.147726 -0.121697
vn -0.981513 -0.147726 -0.121697
vn -0.981513 -0.147726 -0.121697
vn 0.000000 -1.000000 -0.000000
vn 0.000000 -1.000000 -0.000000
vn 0.000000 -1.000000 -0.000000
vn 0.975381 0.215627 -0.046235
vn 0.975381 0.215627 -0.046235
vn 0.975381 0.215627 -0.046235
vn 0.975381 0.215627 -0.046235
vn -0.646957 0.006883 -0.762496
vn -0.646957 0.006883 -0.762496
vn -0.646957 0.006883 -0.762496
vn -0.646957 0.006883 -0.762496
vn -0.490802 -0.023968 0.870941
vn -0.490802 -0.023968 0.870941
vn -0.490802 -0.023968 0.870941
vn -0.490802 -0.023968 0.870941
vn 0.831707 0.553929 -0.037770
vn 0.831707 0.553929 -0.037770
vn 0.831707 0.553929 -0.037770
vn -0.664688 -0.196363 -0.720855
vn -0.664688 -0.196363 -0.720855
vn -0.664688 -0.196363 -0.720855
vn -0.433401 -0.147727 0.889011
vn -0.433401 -0.147727 0.889011
vn -0.433401 -0.147727 0.889011
vn 0.000000 -1.000000 0.000000
vn 0.000000 -1.000000 0.000000
vn 0.000000 -1.000000 0.000000
vn -0.890627 0.215628 0.400361
vn -0.890627 0.215628 0.400361
vn -0.890627 0.215628 0.400361
vn -0.890627 0.215628 0.400361
vn 0.881324 0.006884 0.472462
vn 0.881324 0.006884 0.472462
vn 0.881324 0.006884 0.472462
vn 0.881324 0.006884 0.472462
vn 0.137600 -0.023968 -0.990198
vn 0.137600 -0.023968 -0.990198
vn 0.137600 -0.023968 -0.990198
vn 0.137600 -0.023968 -0.990198
vn -0.760044 0.553929 0.339847
vn -0.760044 0.553929 0.339847
vn -0.760044 0.553929 0.339847
vn 0.882566 -0.196364 0.427221
vn 0.882566 -0.196364 0.427221
vn 0.882566 -0.196364 0.427221
vn 0.077569 -0.147725 -0.985982
vn 0.077569 -0.147725 -0.985982
vn 0.077569 -0.147725 -0.985982
s off
g SMG
usemtl initialShadingGroup
f 1/1/1 3/2/2 2/3/3
f 1/1/4 2/3/5 6/4/6 5/5/7
f 2/3/8 3/6/9 7/7/10 6/4/11
f 3/8/12 1/1/13 5/5/14 7/9/15
f 5/5/16 6/4/17 4/10/18
f 6/4/19 7/7/20 4/10/21
f 7/9/22 5/5/23 4/10/24
f 8/11/25 10/12/26 9/13/27
f 8/11/28 9/13/29 13/14/30 12/15/31
f 9/13/32 10/16/33 14/17/34 13/14/35
f 10/18/36 8/11/37 12/15/38 14/19/39
f 12/15/40 13/14/41 11/20/42
f 13/14/43 14/17/44 11/20/45
f 14/19/46 12/15/47 11/20/48
f 15/21/49 17/22/50 16/23/51
f 15/21/52 16/23/53 20/24/54 19/25/55
f 16/23/56 17/26/57 21/27/58 20/24/59
f 17/28/60 15/21/61 19/25/62 21/29/63
f 19/25/64 20/24/65 18/30/66
f 20/24/67 21/27/68 18/30/69
f 21/29/70 19/25/71 18/30/72
f 22/31/73 24/32/74 23/33/75
f 22/31/76 23/33/77 27/34/78 26/35/79
f 23/33/80 24/36/81 28/37/82 27/34/83
f 24/38/84 22/31/85 26/35/86 28/39/87
f 26/35/88 27/34/89 25/40/90
f 27/34/91 28/37/92 25/40/93
f 28/39/94 26/35/95 25/40/96
