# This file uses centimeters as units for non-parametric coordinates.

mtllib Ponde2.mtl
g default
v -23.757268 3.593123 27.556613
v -19.802829 3.593123 28.631762
v -15.848398 3.593123 28.963404
v -11.893927 3.593123 28.097445
v -7.939492 3.593123 26.734019
v -31.666210 3.593123 23.336875
v -27.711751 3.593123 25.635997
v -23.757268 3.593123 23.602172
v -19.802829 3.593123 23.627112
v -15.848398 3.593123 23.811358
v -11.893927 3.593123 24.143004
v -7.939492 3.593123 24.216700
v -3.985036 3.593123 25.377459
v -0.030586 3.593123 23.967536
v 3.067134 3.593123 23.337138
v 5.369120 3.593123 21.972064
v -33.925323 3.593123 21.054541
v -31.666210 3.593123 21.054541
v -27.711751 3.593123 21.054541
v -23.757268 3.593123 21.054541
v -19.802829 3.593123 21.054541
v -15.848398 3.593123 21.054541
v -11.893927 3.593123 21.054541
v -7.939492 3.593123 21.054541
v -3.985036 3.593123 21.054541
v -0.030586 3.593123 21.054541
v 3.067134 3.593123 20.017430
v 7.392937 3.593123 19.746880
v -36.834709 3.593123 17.100083
v -34.622024 3.593123 17.100083
v -31.666210 3.593123 17.100083
v -27.711751 3.593123 17.100083
v -23.757268 3.593123 17.100083
v -19.802829 3.593123 17.100083
v -15.848398 3.593123 17.100083
v -11.893927 3.593123 17.100083
v -7.939492 3.593123 17.100083
v -3.985036 3.593123 17.100083
v -0.030586 3.593123 17.100083
v 3.923877 3.593123 17.100083
v 8.658156 3.593123 17.100083
v -38.460346 3.593123 13.145600
v -35.388397 3.593123 13.145600
v -31.666210 3.593123 13.145600
v -27.711751 3.593123 13.145600
v -23.757268 3.593123 13.145600
v -19.802829 3.593123 13.145600
v -15.848398 3.593123 13.145600
v -11.893927 3.593123 13.145600
v -7.939492 3.593123 13.145600
v -3.985036 3.593123 13.145600
v -0.030586 3.593123 13.145600
v 3.923877 3.593123 13.145600
v 7.878340 3.593123 13.145600
v 9.830845 3.593123 13.145600
v -39.575073 3.593123 9.191161
v -35.620632 3.593123 9.191161
v -31.666210 3.593123 9.191161
v -27.711751 3.593123 9.191161
v -23.757268 3.593123 9.191161
v -19.802829 3.593123 9.191161
v -15.848398 3.593123 9.191161
v -11.893927 3.593123 9.191161
v -7.939492 3.593123 9.191161
v -3.985036 3.593123 9.191161
v -0.030586 3.593123 9.191161
v 3.923877 3.593123 9.191161
v 7.878340 3.593123 9.191161
v 11.332282 3.593123 9.191161
v -39.575073 3.593123 5.236729
v -35.620632 3.593123 5.236729
v -31.666210 3.593123 5.236729
v -27.711751 3.593123 5.236729
v -23.757268 3.593123 5.236729
v -19.802829 3.593123 5.236729
v -15.848398 3.593123 5.236729
v -11.893927 3.593123 5.236729
v -7.939492 3.593123 5.236729
v -3.985036 3.593123 5.236729
v -0.030586 3.593123 5.236729
v 3.923877 3.593123 5.236729
v 7.878340 3.593123 5.236729
v 11.832760 3.593123 5.236729
v 13.793003 3.593123 5.236729
v -39.273166 3.593123 1.282259
v -35.620632 3.593123 1.282259
v -31.666210 3.593123 1.282259
v -27.711751 3.593123 1.282259
v -23.757268 3.593123 1.282259
v -19.802829 3.593123 1.282259
v -15.848398 3.593123 1.282259
v -11.893927 3.593123 1.282259
v -7.939492 3.593123 1.282259
v -3.985036 3.593123 1.282259
v -0.030586 3.593123 1.282259
v 3.923877 3.593123 1.282259
v 7.878340 3.593123 1.282259
v 11.832760 3.593123 1.282259
v 14.616217 3.593123 1.282259
v -38.297782 3.593123 -2.672177
v -35.620632 3.593123 -2.672177
v -31.666210 3.593123 -2.672177
v -27.711751 3.593123 -2.672177
v -23.757268 3.593123 -2.672177
v -19.802829 3.593123 -2.672177
v -15.848398 3.593123 -2.672177
v -11.893927 3.593123 -2.672177
v -7.939492 3.593123 -2.672177
v -3.985036 3.593123 -2.672177
v -0.030586 3.593123 -2.672177
v 3.923877 3.593123 -2.672177
v 7.878340 3.593123 -2.672177
v 11.832760 3.593123 -2.672177
v 15.787226 3.593123 -2.672177
v -35.620632 3.593123 -7.003513
v -31.666210 3.593123 -6.626632
v -27.711751 3.593123 -6.626632
v -23.757268 3.593123 -6.626632
v -19.802829 3.593123 -6.626632
v -15.848398 3.593123 -6.626632
v -11.893927 3.593123 -6.626632
v -7.939492 3.593123 -6.626632
v -3.985036 3.593123 -6.626632
v -0.030586 3.593123 -6.626632
v 3.923877 3.593123 -6.626632
v 7.878340 3.593123 -6.626632
v 11.832760 3.593123 -6.626632
v 15.787226 3.593123 -6.626632
v 19.033539 3.593123 -6.626632
v -31.666210 3.593123 -11.334846
v -27.711751 3.593123 -10.581083
v -23.757268 3.593123 -10.581083
v -19.802829 3.593123 -10.581083
v -15.848398 3.593123 -10.581083
v -11.893927 3.593123 -10.581083
v -7.939492 3.593123 -10.581083
v -3.985036 3.593123 -10.581083
v -0.030586 3.593123 -10.581083
v 3.923877 3.593123 -10.581083
v 7.878340 3.593123 -10.581083
v 11.832760 3.593123 -10.581083
v 15.787226 3.593123 -10.581083
v 19.990441 3.593123 -10.581083
v -27.711751 3.593123 -14.535545
v -23.757268 3.593123 -14.535545
v -19.802829 3.593123 -14.535545
v -15.848398 3.593123 -14.535545
v -11.893927 3.593123 -14.535545
v -7.939492 3.593123 -14.535545
v -3.985036 3.593123 -14.535545
v -0.030586 3.593123 -14.535545
v 3.923877 3.593123 -14.535545
v 7.878340 3.593123 -14.535545
v 11.832760 3.593123 -14.535545
v 15.787226 3.593123 -14.535545
v 19.415097 3.593123 -14.535545
v -23.757268 3.593123 -16.275832
v -19.802829 3.593123 -19.149551
v -15.848398 3.593123 -18.490008
v -11.893927 3.593123 -18.490008
v -7.939492 3.593123 -18.490008
v -3.985036 3.593123 -18.490008
v -0.030586 3.593123 -18.490008
v 3.923877 3.593123 -18.490008
v 7.878340 3.593123 -18.490008
v 11.832760 3.593123 -18.490008
v 15.787226 3.593123 -18.490008
v 18.355389 3.593123 -18.490008
v -16.248834 3.593123 -22.750644
v -11.893927 3.593123 -22.444429
v -7.939492 3.593123 -22.444429
v -3.985036 3.593123 -22.444429
v -0.030586 3.593123 -22.444429
v 3.923877 3.593123 -22.444429
v 7.878340 3.593123 -22.444429
v 11.832760 3.593123 -22.444429
v 15.787226 3.593123 -22.444429
v -11.893927 3.593123 -26.398895
v -7.939492 3.593123 -26.398895
v -3.985036 3.593123 -26.398895
v -0.030586 3.593123 -26.398895
v 3.923877 3.593123 -26.398895
v 7.878340 3.593123 -26.398895
v 11.832760 3.593123 -26.398895
v -7.939492 3.593123 -27.918737
v -3.985036 3.593123 -29.284482
v -0.030586 3.593123 -29.729835
v 3.923877 3.593123 -29.284482
v 7.878340 3.593123 -27.918737
vt 0.200000 0.000000
vt 0.250000 0.000000
vt 0.300000 0.000000
vt 0.350000 0.000000
vt 0.400000 0.000000
vt 0.100000 0.050000
vt 0.150000 0.050000
vt 0.200000 0.050000
vt 0.250000 0.050000
vt 0.300000 0.050000
vt 0.350000 0.050000
vt 0.400000 0.050000
vt 0.450000 0.050000
vt 0.500000 0.050000
vt 0.550000 0.050000
vt 0.600000 0.050000
vt 0.050000 0.100000
vt 0.100000 0.100000
vt 0.150000 0.100000
vt 0.200000 0.100000
vt 0.250000 0.100000
vt 0.300000 0.100000
vt 0.350000 0.100000
vt 0.400000 0.100000
vt 0.450000 0.100000
vt 0.500000 0.100000
vt 0.550000 0.100000
vt 0.600000 0.100000
vt 0.000000 0.150000
vt 0.050000 0.150000
vt 0.100000 0.150000
vt 0.150000 0.150000
vt 0.200000 0.150000
vt 0.250000 0.150000
vt 0.300000 0.150000
vt 0.350000 0.150000
vt 0.400000 0.150000
vt 0.450000 0.150000
vt 0.500000 0.150000
vt 0.550000 0.150000
vt 0.600000 0.150000
vt 0.000000 0.200000
vt 0.050000 0.200000
vt 0.100000 0.200000
vt 0.150000 0.200000
vt 0.200000 0.200000
vt 0.250000 0.200000
vt 0.300000 0.200000
vt 0.350000 0.200000
vt 0.400000 0.200000
vt 0.450000 0.200000
vt 0.500000 0.200000
vt 0.550000 0.200000
vt 0.600000 0.200000
vt 0.650000 0.200000
vt 0.000000 0.250000
vt 0.050000 0.250000
vt 0.100000 0.250000
vt 0.150000 0.250000
vt 0.200000 0.250000
vt 0.250000 0.250000
vt 0.300000 0.250000
vt 0.350000 0.250000
vt 0.400000 0.250000
vt 0.450000 0.250000
vt 0.500000 0.250000
vt 0.550000 0.250000
vt 0.600000 0.250000
vt 0.650000 0.250000
vt 0.000000 0.300000
vt 0.050000 0.300000
vt 0.100000 0.300000
vt 0.150000 0.300000
vt 0.200000 0.300000
vt 0.250000 0.300000
vt 0.300000 0.300000
vt 0.350000 0.300000
vt 0.400000 0.300000
vt 0.450000 0.300000
vt 0.500000 0.300000
vt 0.550000 0.300000
vt 0.600000 0.300000
vt 0.650000 0.300000
vt 0.700000 0.300000
vt 0.000000 0.350000
vt 0.050000 0.350000
vt 0.100000 0.350000
vt 0.150000 0.350000
vt 0.200000 0.350000
vt 0.250000 0.350000
vt 0.300000 0.350000
vt 0.350000 0.350000
vt 0.400000 0.350000
vt 0.450000 0.350000
vt 0.500000 0.350000
vt 0.550000 0.350000
vt 0.600000 0.350000
vt 0.650000 0.350000
vt 0.700000 0.350000
vt 0.000000 0.400000
vt 0.050000 0.400000
vt 0.100000 0.400000
vt 0.150000 0.400000
vt 0.200000 0.400000
vt 0.250000 0.400000
vt 0.300000 0.400000
vt 0.350000 0.400000
vt 0.400000 0.400000
vt 0.450000 0.400000
vt 0.500000 0.400000
vt 0.550000 0.400000
vt 0.600000 0.400000
vt 0.650000 0.400000
vt 0.700000 0.400000
vt 0.050000 0.450000
vt 0.100000 0.450000
vt 0.150000 0.450000
vt 0.200000 0.450000
vt 0.250000 0.450000
vt 0.300000 0.450000
vt 0.350000 0.450000
vt 0.400000 0.450000
vt 0.450000 0.450000
vt 0.500000 0.450000
vt 0.550000 0.450000
vt 0.600000 0.450000
vt 0.650000 0.450000
vt 0.700000 0.450000
vt 0.750000 0.450000
vt 0.100000 0.500000
vt 0.150000 0.500000
vt 0.200000 0.500000
vt 0.250000 0.500000
vt 0.300000 0.500000
vt 0.350000 0.500000
vt 0.400000 0.500000
vt 0.450000 0.500000
vt 0.500000 0.500000
vt 0.550000 0.500000
vt 0.600000 0.500000
vt 0.650000 0.500000
vt 0.700000 0.500000
vt 0.750000 0.500000
vt 0.150000 0.550000
vt 0.200000 0.550000
vt 0.250000 0.550000
vt 0.300000 0.550000
vt 0.350000 0.550000
vt 0.400000 0.550000
vt 0.450000 0.550000
vt 0.500000 0.550000
vt 0.550000 0.550000
vt 0.600000 0.550000
vt 0.650000 0.550000
vt 0.700000 0.550000
vt 0.750000 0.550000
vt 0.200000 0.600000
vt 0.250000 0.600000
vt 0.300000 0.600000
vt 0.350000 0.600000
vt 0.400000 0.600000
vt 0.450000 0.600000
vt 0.500000 0.600000
vt 0.550000 0.600000
vt 0.600000 0.600000
vt 0.650000 0.600000
vt 0.700000 0.600000
vt 0.750000 0.600000
vt 0.300000 0.650000
vt 0.350000 0.650000
vt 0.400000 0.650000
vt 0.450000 0.650000
vt 0.500000 0.650000
vt 0.550000 0.650000
vt 0.600000 0.650000
vt 0.650000 0.650000
vt 0.700000 0.650000
vt 0.350000 0.700000
vt 0.400000 0.700000
vt 0.450000 0.700000
vt 0.500000 0.700000
vt 0.550000 0.700000
vt 0.600000 0.700000
vt 0.650000 0.700000
vt 0.400000 0.750000
vt 0.450000 0.750000
vt 0.500000 0.750000
vt 0.550000 0.750000
vt 0.600000 0.750000
vn 0.000000 1.000000 0.000000
vn 0.000000 1.000000 0.000000
vn 0.000000 1.000000 0.000000
vn 0.000000 1.000000 0.000000
vn 0.000000 1.000000 0.000000
vn 0.000000 1.000000 0.000000
vn 0.000000 1.000000 0.000000
vn 0.000000 1.000000 0.000000
vn 0.000000 1.000000 0.000000
vn 0.000000 1.000000 0.000000
vn 0.000000 1.000000 0.000000
vn 0.000000 1.000000 -0.000000
vn 0.000000 1.000000 0.000000
vn 0.000000 1.000000 -0.000000
vn 0.000000 1.000000 0.000000
vn 0.000000 1.000000 0.000000
vn 0.000000 1.000000 0.000000
vn 0.000000 1.000000 0.000000
vn 0.000000 1.000000 0.000000
vn 0.000000 1.000000 0.000000
vn 0.000000 1.000000 0.000000
vn 0.000000 1.000000 0.000000
vn 0.000000 1.000000 0.000000
vn 0.000000 1.000000 0.000000
vn 0.000000 1.000000 0.000000
vn 0.000000 1.000000 0.000000
vn 0.000000 1.000000 0.000000
vn 0.000000 1.000000 0.000000
vn 0.000000 1.000000 -0.000000
vn 0.000000 1.000000 -0.000000
vn 0.000000 1.000000 -0.000000
vn 0.000000 1.000000 0.000000
vn 0.000000 1.000000 0.000000
vn 0.000000 1.000000 0.000000
vn 0.000000 1.000000 0.000000
vn 0.000000 1.000000 0.000000
vn 0.000000 1.000000 0.000000
vn 0.000000 1.000000 0.000000
vn 0.000000 1.000000 0.000000
vn 0.000000 1.000000 0.000000
vn 0.000000 1.000000 0.000000
vn 0.000000 1.000000 -0.000000
vn 0.000000 1.000000 -0.000000
vn 0.000000 1.000000 -0.000000
vn 0.000000 1.000000 0.000000
vn 0.000000 1.000000 0.000000
vn 0.000000 1.000000 0.000000
vn 0.000000 1.000000 0.000000
vn 0.000000 1.000000 0.000000
vn 0.000000 1.000000 0.000000
vn 0.000000 1.000000 0.000000
vn 0.000000 1.000000 0.000000
vn 0.000000 1.000000 0.000000
vn 0.000000 1.000000 0.000000
vn 0.000000 1.000000 -0.000000
vn 0.000000 1.000000 -0.000000
vn 0.000000 1.000000 -0.000000
vn 0.000000 1.000000 0.000000
vn 0.000000 1.000000 0.000000
vn 0.000000 1.000000 0.000000
vn 0.000000 1.000000 0.000000
vn 0.000000 1.000000 0.000000
vn 0.000000 1.000000 0.000000
vn 0.000000 1.000000 0.000000
vn 0.000000 1.000000 0.000000
vn 0.000000 1.000000 0.000000
vn 0.000000 1.000000 0.000000
vn 0.000000 1.000000 0.000000
vn 0.000000 1.000000 0.000000
vn 0.000000 1.000000 0.000000
vn 0.000000 1.000000 0.000000
vn 0.000000 1.000000 0.000000
vn 0.000000 1.000000 0.000000
vn 0.000000 1.000000 0.000000
vn 0.000000 1.000000 0.000000
vn 0.000000 1.000000 0.000000
vn 0.000000 1.000000 0.000000
vn 0.000000 1.000000 0.000000
vn 0.000000 1.000000 0.000000
vn 0.000000 1.000000 0.000000
vn 0.000000 1.000000 0.000000
vn 0.000000 1.000000 0.000000
vn 0.000000 1.000000 0.000000
vn 0.000000 1.000000 0.000000
vn 0.000000 1.000000 0.000000
vn 0.000000 1.000000 0.000000
vn 0.000000 1.000000 0.000000
vn 0.000000 1.000000 0.000000
vn 0.000000 1.000000 0.000000
vn 0.000000 1.000000 0.000000
vn 0.000000 1.000000 0.000000
vn 0.000000 1.000000 0.000000
vn 0.000000 1.000000 0.000000
vn 0.000000 1.000000 0.000000
vn 0.000000 1.000000 0.000000
vn 0.000000 1.000000 0.000000
vn 0.000000 1.000000 0.000000
vn 0.000000 1.000000 0.000000
vn 0.000000 1.000000 0.000000
vn 0.000000 1.000000 0.000000
vn 0.000000 1.000000 0.000000
vn 0.000000 1.000000 0.000000
vn 0.000000 1.000000 0.000000
vn 0.000000 1.000000 0.000000
vn 0.000000 1.000000 0.000000
vn 0.000000 1.000000 0.000000
vn 0.000000 1.000000 0.000000
vn 0.000000 1.000000 0.000000
vn 0.000000 1.000000 0.000000
vn 0.000000 1.000000 0.000000
vn 0.000000 1.000000 0.000000
vn 0.000000 1.000000 0.000000
vn 0.000000 1.000000 0.000000
vn 0.000000 1.000000 0.000000
vn 0.000000 1.000000 0.000000
vn 0.000000 1.000000 0.000000
vn 0.000000 1.000000 0.000000
vn 0.000000 1.000000 0.000000
vn 0.000000 1.000000 0.000000
vn 0.000000 1.000000 0.000000
vn 0.000000 1.000000 0.000000
vn 0.000000 1.000000 0.000000
vn 0.000000 1.000000 0.000000
vn 0.000000 1.000000 0.000000
vn 0.000000 1.000000 0.000000
vn 0.000000 1.000000 0.000000
vn 0.000000 1.000000 0.000000
vn 0.000000 1.000000 0.000000
vn 0.000000 1.000000 0.000000
vn 0.000000 1.000000 0.000000
vn 0.000000 1.000000 0.000000
vn 0.000000 1.000000 0.000000
vn 0.000000 1.000000 0.000000
vn 0.000000 1.000000 0.000000
vn 0.000000 1.000000 0.000000
vn 0.000000 1.000000 0.000000
vn 0.000000 1.000000 0.000000
vn 0.000000 1.000000 0.000000
vn 0.000000 1.000000 0.000000
vn 0.000000 1.000000 0.000000
vn 0.000000 1.000000 -0.000000
vn 0.000000 1.000000 0.000000
vn 0.000000 1.000000 -0.000000
vn 0.000000 1.000000 0.000000
vn 0.000000 1.000000 0.000000
vn 0.000000 1.000000 0.000000
vn 0.000000 1.000000 0.000000
vn 0.000000 1.000000 0.000000
vn 0.000000 1.000000 0.000000
vn 0.000000 1.000000 0.000000
vn 0.000000 1.000000 0.000000
vn 0.000000 1.000000 0.000000
vn 0.000000 1.000000 0.000000
vn 0.000000 1.000000 0.000000
vn 0.000000 1.000000 -0.000000
vn 0.000000 1.000000 -0.000000
vn 0.000000 1.000000 0.000000
vn 0.000000 1.000000 0.000000
vn 0.000000 1.000000 0.000000
vn 0.000000 1.000000 0.000000
vn 0.000000 1.000000 0.000000
vn 0.000000 1.000000 0.000000
vn 0.000000 1.000000 0.000000
vn 0.000000 1.000000 0.000000
vn 0.000000 1.000000 0.000000
vn 0.000000 1.000000 0.000000
vn 0.000000 1.000000 -0.000000
vn 0.000000 1.000000 -0.000000
vn 0.000000 1.000000 0.000000
vn 0.000000 1.000000 0.000000
vn 0.000000 1.000000 0.000000
vn 0.000000 1.000000 0.000000
vn 0.000000 1.000000 0.000000
vn 0.000000 1.000000 0.000000
vn 0.000000 1.000000 0.000000
vn 0.000000 1.000000 0.000000
vn 0.000000 1.000000 0.000000
vn 0.000000 1.000000 0.000000
vn 0.000000 1.000000 0.000000
vn 0.000000 1.000000 0.000000
vn 0.000000 1.000000 0.000000
vn 0.000000 1.000000 0.000000
vn 0.000000 1.000000 0.000000
vn 0.000000 1.000000 0.000000
vn 0.000000 1.000000 0.000000
vn 0.000000 1.000000 0.000000
vn 0.000000 1.000000 0.000000
vn 0.000000 1.000000 0.000000
vn 0.000000 1.000000 0.000000
s 1
g pPlane1
usemtl initialShadingGroup
f 7/7/1 1/1/2 8/8/3
f 1/1/2 2/2/4 9/9/5 8/8/3
f 2/2/4 3/3/6 10/10/7 9/9/5
f 3/3/6 4/4/8 11/11/9 10/10/7
f 4/4/8 5/5/10 12/12/11 11/11/9
f 17/17/12 6/6/13 18/18/14
f 6/6/13 7/7/1 19/19/15 18/18/14
f 7/7/1 8/8/3 20/20/16 19/19/15
f 8/8/3 9/9/5 21/21/17 20/20/16
f 9/9/5 10/10/7 22/22/18 21/21/17
f 10/10/7 11/11/9 23/23/19 22/22/18
f 11/11/9 12/12/11 24/24/20 23/23/19
f 12/12/11 13/13/21 25/25/22 24/24/20
f 13/13/21 14/14/23 26/26/24 25/25/22
f 14/14/23 15/15/25 27/27/26 26/26/24
f 15/15/25 16/16/27 28/28/28 27/27/26
f 29/29/29 17/17/12 30/30/30
f 17/17/12 18/18/14 31/31/31 30/30/30
f 18/18/14 19/19/15 32/32/32 31/31/31
f 19/19/15 20/20/16 33/33/33 32/32/32
f 20/20/16 21/21/17 34/34/34 33/33/33
f 21/21/17 22/22/18 35/35/35 34/34/34
f 22/22/18 23/23/19 36/36/36 35/35/35
f 23/23/19 24/24/20 37/37/37 36/36/36
f 24/24/20 25/25/22 38/38/38 37/37/37
f 25/25/22 26/26/24 39/39/39 38/38/38
f 26/26/24 27/27/26 40/40/40 39/39/39
f 27/27/26 28/28/28 41/41/41 40/40/40
f 29/29/29 30/30/30 43/43/42 42/42/43
f 30/30/30 31/31/31 44/44/44 43/43/42
f 31/31/31 32/32/32 45/45/45 44/44/44
f 32/32/32 33/33/33 46/46/46 45/45/45
f 33/33/33 34/34/34 47/47/47 46/46/46
f 34/34/34 35/35/35 48/48/48 47/47/47
f 35/35/35 36/36/36 49/49/49 48/48/48
f 36/36/36 37/37/37 50/50/50 49/49/49
f 37/37/37 38/38/38 51/51/51 50/50/50
f 38/38/38 39/39/39 52/52/52 51/51/51
f 39/39/39 40/40/40 53/53/53 52/52/52
f 40/40/40 41/41/41 54/54/54 53/53/53
f 42/42/43 43/43/42 57/57/55 56/56/56
f 43/43/42 44/44/44 58/58/57 57/57/55
f 44/44/44 45/45/45 59/59/58 58/58/57
f 45/45/45 46/46/46 60/60/59 59/59/58
f 46/46/46 47/47/47 61/61/60 60/60/59
f 47/47/47 48/48/48 62/62/61 61/61/60
f 48/48/48 49/49/49 63/63/62 62/62/61
f 49/49/49 50/50/50 64/64/63 63/63/62
f 50/50/50 51/51/51 65/65/64 64/64/63
f 51/51/51 52/52/52 66/66/65 65/65/64
f 52/52/52 53/53/53 67/67/66 66/66/65
f 53/53/53 54/54/54 68/68/67 67/67/66
f 54/54/54 55/55/68 69/69/69 68/68/67
f 56/56/56 57/57/55 71/71/70 70/70/71
f 57/57/55 58/58/57 72/72/72 71/71/70
f 58/58/57 59/59/58 73/73/73 72/72/72
f 59/59/58 60/60/59 74/74/74 73/73/73
f 60/60/59 61/61/60 75/75/75 74/74/74
f 61/61/60 62/62/61 76/76/76 75/75/75
f 62/62/61 63/63/62 77/77/77 76/76/76
f 63/63/62 64/64/63 78/78/78 77/77/77
f 64/64/63 65/65/64 79/79/79 78/78/78
f 65/65/64 66/66/65 80/80/80 79/79/79
f 66/66/65 67/67/66 81/81/81 80/80/80
f 67/67/66 68/68/67 82/82/82 81/81/81
f 68/68/67 69/69/69 83/83/83 82/82/82
f 70/70/71 71/71/70 86/86/84 85/85/85
f 71/71/70 72/72/72 87/87/86 86/86/84
f 72/72/72 73/73/73 88/88/87 87/87/86
f 73/73/73 74/74/74 89/89/88 88/88/87
f 74/74/74 75/75/75 90/90/89 89/89/88
f 75/75/75 76/76/76 91/91/90 90/90/89
f 76/76/76 77/77/77 92/92/91 91/91/90
f 77/77/77 78/78/78 93/93/92 92/92/91
f 78/78/78 79/79/79 94/94/93 93/93/92
f 79/79/79 80/80/80 95/95/94 94/94/93
f 80/80/80 81/81/81 96/96/95 95/95/94
f 81/81/81 82/82/82 97/97/96 96/96/95
f 82/82/82 83/83/83 98/98/97 97/97/96
f 83/83/83 84/84/98 99/99/99 98/98/97
f 85/85/85 86/86/84 101/101/100 100/100/101
f 86/86/84 87/87/86 102/102/102 101/101/100
f 87/87/86 88/88/87 103/103/103 102/102/102
f 88/88/87 89/89/88 104/104/104 103/103/103
f 89/89/88 90/90/89 105/105/105 104/104/104
f 90/90/89 91/91/90 106/106/106 105/105/105
f 91/91/90 92/92/91 107/107/107 106/106/106
f 92/92/91 93/93/92 108/108/108 107/107/107
f 93/93/92 94/94/93 109/109/109 108/108/108
f 94/94/93 95/95/94 110/110/110 109/109/109
f 95/95/94 96/96/95 111/111/111 110/110/110
f 96/96/95 97/97/96 112/112/112 111/111/111
f 97/97/96 98/98/97 113/113/113 112/112/112
f 98/98/97 99/99/99 114/114/114 113/113/113
f 100/100/101 101/101/100 115/115/115
f 101/101/100 102/102/102 116/116/116 115/115/115
f 102/102/102 103/103/103 117/117/117 116/116/116
f 103/103/103 104/104/104 118/118/118 117/117/117
f 104/104/104 105/105/105 119/119/119 118/118/118
f 105/105/105 106/106/106 120/120/120 119/119/119
f 106/106/106 107/107/107 121/121/121 120/120/120
f 107/107/107 108/108/108 122/122/122 121/121/121
f 108/108/108 109/109/109 123/123/123 122/122/122
f 109/109/109 110/110/110 124/124/124 123/123/123
f 110/110/110 111/111/111 125/125/125 124/124/124
f 111/111/111 112/112/112 126/126/126 125/125/125
f 112/112/112 113/113/113 127/127/127 126/126/126
f 113/113/113 114/114/114 128/128/128 127/127/127
f 115/115/115 116/116/116 130/130/129
f 116/116/116 117/117/117 131/131/130 130/130/129
f 117/117/117 118/118/118 132/132/131 131/131/130
f 118/118/118 119/119/119 133/133/132 132/132/131
f 119/119/119 120/120/120 134/134/133 133/133/132
f 120/120/120 121/121/121 135/135/134 134/134/133
f 121/121/121 122/122/122 136/136/135 135/135/134
f 122/122/122 123/123/123 137/137/136 136/136/135
f 123/123/123 124/124/124 138/138/137 137/137/136
f 124/124/124 125/125/125 139/139/138 138/138/137
f 125/125/125 126/126/126 140/140/139 139/139/138
f 126/126/126 127/127/127 141/141/140 140/140/139
f 127/127/127 128/128/128 142/142/141 141/141/140
f 128/128/128 129/129/142 143/143/143 142/142/141
f 130/130/129 131/131/130 144/144/144
f 131/131/130 132/132/131 145/145/145 144/144/144
f 132/132/131 133/133/132 146/146/146 145/145/145
f 133/133/132 134/134/133 147/147/147 146/146/146
f 134/134/133 135/135/134 148/148/148 147/147/147
f 135/135/134 136/136/135 149/149/149 148/148/148
f 136/136/135 137/137/136 150/150/150 149/149/149
f 137/137/136 138/138/137 151/151/151 150/150/150
f 138/138/137 139/139/138 152/152/152 151/151/151
f 139/139/138 140/140/139 153/153/153 152/152/152
f 140/140/139 141/141/140 154/154/154 153/153/153
f 141/141/140 142/142/141 155/155/155 154/154/154
f 142/142/141 143/143/143 156/156/156 155/155/155
f 144/144/144 145/145/145 157/157/157
f 145/145/145 146/146/146 158/158/158 157/157/157
f 146/146/146 147/147/147 159/159/159 158/158/158
f 147/147/147 148/148/148 160/160/160 159/159/159
f 148/148/148 149/149/149 161/161/161 160/160/160
f 149/149/149 150/150/150 162/162/162 161/161/161
f 150/150/150 151/151/151 163/163/163 162/162/162
f 151/151/151 152/152/152 164/164/164 163/163/163
f 152/152/152 153/153/153 165/165/165 164/164/164
f 153/153/153 154/154/154 166/166/166 165/165/165
f 154/154/154 155/155/155 167/167/167 166/166/166
f 155/155/155 156/156/156 168/168/168 167/167/167
f 158/158/158 159/159/159 169/169/169
f 159/159/159 160/160/160 170/170/170 169/169/169
f 160/160/160 161/161/161 171/171/171 170/170/170
f 161/161/161 162/162/162 172/172/172 171/171/171
f 162/162/162 163/163/163 173/173/173 172/172/172
f 163/163/163 164/164/164 174/174/174 173/173/173
f 164/164/164 165/165/165 175/175/175 174/174/174
f 165/165/165 166/166/166 176/176/176 175/175/175
f 166/166/166 167/167/167 177/177/177 176/176/176
f 169/169/169 170/170/170 178/178/178
f 170/170/170 171/171/171 179/179/179 178/178/178
f 171/171/171 172/172/172 180/180/180 179/179/179
f 172/172/172 173/173/173 181/181/181 180/180/180
f 173/173/173 174/174/174 182/182/182 181/181/181
f 174/174/174 175/175/175 183/183/183 182/182/182
f 175/175/175 176/176/176 184/184/184 183/183/183
f 178/178/178 179/179/179 185/185/185
f 179/179/179 180/180/180 186/186/186 185/185/185
f 180/180/180 181/181/181 187/187/187 186/186/186
f 181/181/181 182/182/182 188/188/188 187/187/187
f 182/182/182 183/183/183 189/189/189 188/188/188
f 183/183/183 184/184/184 189/189/189
f 5/5/10 13/13/21 12/12/11
f 176/176/176 177/177/177 184/184/184
f 167/167/167 168/168/168 177/177/177
f 114/114/114 129/129/142 128/128/128
f 69/69/69 84/84/98 83/83/83
f 41/41/41 55/55/68 54/54/54
