# This file uses centimeters as units for non-parametric coordinates.

mtllib SMGrass.mtl
g default
v -0.040737 -0.000000 0.091497
v 0.226467 -0.000000 0.044343
v 0.052029 -0.000000 -0.163486
v -0.003268 0.897012 0.000626
v 0.082521 0.334899 0.068871
v -0.023298 0.334899 -0.057203
v -0.079572 0.334899 0.097476
v 0.041531 0.579497 0.046670
v -0.034838 0.566140 -0.045056
v -0.075387 0.577211 0.067538
v 0.083126 -0.000000 -0.338900
v -0.067912 -0.000000 -0.234967
v 0.097616 -0.000000 -0.156131
v 0.168825 0.443406 -0.630223
v 0.104448 0.201214 -0.349030
v 0.004318 0.261102 -0.290898
v 0.122116 0.262016 -0.235088
v 0.133409 0.306666 -0.421049
v 0.070328 0.376596 -0.402234
v 0.157906 0.377683 -0.361180
v -0.284969 -0.000000 0.265107
v -0.014298 -0.000000 0.246158
v -0.166044 -0.000000 0.021225
v -0.613215 0.656206 0.572055
v -0.325274 0.263017 0.265816
v -0.143748 0.328044 0.259917
v -0.251803 0.329036 0.100109
v -0.462903 0.508277 0.420345
v -0.368346 0.611768 0.443782
v -0.449126 0.613377 0.325610
v -0.286671 -0.000000 -0.081376
v -0.053489 -0.000000 0.057360
v -0.049931 -0.000000 -0.213950
v -0.558005 0.553572 -0.078852
v -0.262599 0.170341 -0.080646
v -0.110096 0.235367 0.017992
v -0.107769 0.236360 -0.174904
v -0.280547 0.319018 -0.080159
v -0.216220 0.422509 -0.006998
v -0.215220 0.424117 -0.150138
v 0.357122 -0.000000 -0.149441
v 0.134003 -0.000000 -0.119945
v 0.271106 -0.000000 0.058534
v 0.613215 0.544297 -0.420305
v 0.386087 0.246997 -0.148637
v 0.244174 0.320512 -0.140863
v 0.341907 0.321634 -0.014169
v 0.457900 0.376444 -0.211265
v 0.378422 0.462286 -0.225844
v 0.451327 0.463620 -0.132132
v 0.179487 -0.000000 0.317311
v 0.221342 -0.000000 0.049225
v -0.031755 -0.000000 0.147020
v 0.386439 0.656206 0.630223
v 0.171194 0.263017 0.356760
v 0.205902 0.328044 0.178485
v 0.026031 0.329036 0.248203
v 0.219957 0.423619 0.411795
v 0.263879 0.527110 0.324840
v 0.130676 0.528719 0.377249
vt 0.135884 0.351222
vt 0.056658 0.077692
vt 0.333155 0.145845
vt 0.996705 0.980640
vt 0.577746 0.000000
vt 0.000000 0.601484
vt 0.594181 0.474235
vt 0.742555 0.385762
vt 0.392081 0.750635
vt 0.474512 0.598821
vt 0.772415 0.698466
vt 0.851926 0.641761
vt 0.652275 0.849615
vt 0.704621 0.767073
vt 0.135884 0.351222
vt 0.056658 0.077692
vt 0.333155 0.145845
vt 0.524935 0.387118
vt 0.384679 0.533136
vt 0.577746 0.000000
vt 0.698834 0.283425
vt 0.000000 0.601484
vt 0.288068 0.711067
vt 0.646674 0.540275
vt 0.550844 0.654633
vt 0.775637 0.463194
vt 0.470782 0.780574
vt 0.996705 0.980640
vt 0.135884 0.351222
vt 0.056658 0.077692
vt 0.333155 0.145845
vt 0.524935 0.387118
vt 0.384679 0.533136
vt 0.577746 0.000000
vt 0.698834 0.283425
vt 0.000000 0.601484
vt 0.288068 0.711067
vt 0.646674 0.540275
vt 0.550844 0.654633
vt 0.775637 0.463194
vt 0.470782 0.780574
vt 0.996705 0.980640
vt 0.135884 0.351222
vt 0.056658 0.077692
vt 0.333155 0.145845
vt 0.524935 0.387118
vt 0.384679 0.533136
vt 0.577746 0.000000
vt 0.698834 0.283425
vt 0.000000 0.601484
vt 0.288068 0.711067
vt 0.646674 0.540275
vt 0.550844 0.654633
vt 0.775637 0.463194
vt 0.470782 0.780574
vt 0.996705 0.980640
vt 0.135884 0.351222
vt 0.056658 0.077692
vt 0.333155 0.145845
vt 0.524935 0.387118
vt 0.384679 0.533136
vt 0.577746 0.000000
vt 0.698834 0.283425
vt 0.000000 0.601484
vt 0.288068 0.711067
vt 0.646674 0.540275
vt 0.550844 0.654633
vt 0.775637 0.463194
vt 0.470782 0.780574
vt 0.996705 0.980640
vt 0.135884 0.351222
vt 0.056658 0.077692
vt 0.333155 0.145845
vt 0.524935 0.387118
vt 0.384679 0.533136
vt 0.577746 0.000000
vt 0.698834 0.283425
vt 0.000000 0.601484
vt 0.288068 0.711067
vt 0.646674 0.540275
vt 0.550844 0.654633
vt 0.775637 0.463194
vt 0.470782 0.780574
vt 0.996705 0.980640
vn 0.000000 -1.000000 0.000000
vn 0.000000 -1.000000 0.000000
vn 0.000000 -1.000000 0.000000
vn 0.173784 0.002571 0.984780
vn 0.173784 0.002571 0.984781
vn 0.173660 0.031962 0.984287
vn 0.173591 0.041117 0.983959
vn 0.767320 0.015298 -0.641082
vn 0.764722 0.051800 -0.642275
vn 0.764545 0.053858 -0.642317
vn -0.927688 0.136495 -0.347512
vn -0.938980 0.025102 -0.343055
vn -0.938820 0.028310 -0.343243
vn 0.171744 0.133074 0.976112
vn 0.171784 0.132209 0.976223
vn 0.736610 0.272713 -0.618897
vn 0.734475 0.282531 -0.617027
vn 0.716878 0.352197 -0.601701
vn 0.716878 0.352197 -0.601701
vn -0.937021 -0.079486 -0.340109
vn -0.936749 -0.082592 -0.340118
vn -0.934807 -0.102327 -0.340095
vn -0.934807 -0.102327 -0.340095
vn 0.170168 0.164894 0.971521
vn 0.000000 -1.000000 0.000000
vn 0.000000 -1.000000 0.000000
vn 0.000000 -1.000000 0.000000
vn -0.543811 -0.009865 -0.839150
vn -0.543811 -0.009865 -0.839150
vn -0.569990 -0.107935 -0.814532
vn -0.568672 -0.102406 -0.816165
vn -0.410499 0.298112 0.861754
vn -0.410499 0.298112 0.861754
vn -0.386867 0.441933 0.809339
vn -0.387712 0.437768 0.811196
vn 0.989924 -0.114059 -0.083915
vn 0.989924 -0.114059 -0.083915
vn 0.984469 -0.163389 -0.064227
vn 0.983761 -0.168355 -0.062225
vn -0.659190 -0.415267 -0.626914
vn -0.653636 -0.406343 -0.638472
vn -0.243682 0.832120 0.498193
vn -0.231845 0.850334 0.472420
vn 0.955532 -0.294175 -0.020495
vn 0.955632 -0.293898 -0.019804
vn -0.716631 -0.521990 -0.462565
vn -0.120258 0.965499 0.230975
vn 0.953390 -0.299756 -0.034535
vn 0.000000 -1.000000 0.000000
vn 0.000000 -1.000000 0.000000
vn 0.000000 -1.000000 0.000000
vn 0.056061 -0.008336 0.998393
vn 0.056061 -0.008336 0.998393
vn 0.117916 -0.179368 0.976690
vn 0.126080 -0.202327 0.971168
vn 0.782522 0.330674 -0.527555
vn 0.782522 0.330674 -0.527555
vn 0.716715 0.504360 -0.481602
vn 0.712809 0.512411 -0.478893
vn -0.889145 -0.130350 -0.438669
vn -0.889145 -0.130350 -0.438669
vn -0.879957 -0.177035 -0.440833
vn -0.881633 -0.169257 -0.440541
vn 0.231627 -0.439309 0.867961
vn 0.228584 -0.437785 0.869536
vn 0.522202 0.779110 -0.346832
vn 0.501464 0.798793 -0.332361
vn -0.855570 -0.252918 -0.451699
vn -0.857482 -0.249247 -0.450112
vn 0.333979 -0.487800 0.806542
vn 0.137111 0.987297 -0.080287
vn -0.811400 -0.329057 -0.483064
vn 0.000000 -1.000000 0.000000
vn 0.000000 -1.000000 0.000000
vn 0.000000 -1.000000 0.000000
vn -0.528446 0.038393 0.848099
vn -0.528446 0.038393 0.848099
vn -0.536529 -0.026707 0.843459
vn -0.534966 -0.012537 0.844781
vn 0.971727 0.235759 0.012823
vn 0.971727 0.235759 0.012823
vn 0.943964 0.329802 0.012799
vn 0.944022 0.329633 0.012800
vn -0.506130 0.042227 -0.861423
vn -0.506130 0.042227 -0.861423
vn -0.512963 -0.007202 -0.858380
vn -0.514653 -0.021089 -0.857140
vn -0.446457 -0.271620 0.852584
vn -0.474404 -0.236992 0.847806
vn 0.717150 0.696790 0.013372
vn 0.717846 0.696073 0.013370
vn -0.457236 -0.223250 -0.860869
vn -0.430392 -0.256641 -0.865389
vn -0.332357 -0.397916 0.855103
vn 0.355633 0.934535 0.012987
vn -0.322961 -0.377198 -0.867997
vn 0.000000 -1.000000 -0.000000
vn 0.000000 -1.000000 -0.000000
vn 0.000000 -1.000000 -0.000000
vn -0.103535 -0.009865 -0.994577
vn -0.103535 -0.009865 -0.994577
vn -0.138038 -0.107935 -0.984528
vn -0.136122 -0.102406 -0.985385
vn -0.757007 0.298112 0.581437
vn -0.757007 0.298112 0.581437
vn -0.712154 0.441933 0.545465
vn -0.713750 0.437768 0.546736
vn 0.920111 -0.114059 0.374682
vn 0.920111 -0.114059 0.374682
vn 0.906312 -0.163389 0.389747
vn 0.904772 -0.168354 0.391210
vn -0.302697 -0.415267 -0.857862
vn -0.292500 -0.406343 -0.865638
vn -0.443310 0.832120 0.333247
vn -0.421062 0.850334 0.315658
vn 0.860674 -0.294175 0.415574
vn 0.860449 -0.293898 0.416235
vn -0.428494 -0.521991 -0.737508
vn -0.212017 0.965499 0.151196
vn 0.865141 -0.299756 0.402092
vn 0.000000 -1.000000 -0.000000
vn 0.000000 -1.000000 -0.000000
vn 0.000000 -1.000000 -0.000000
vn 0.985773 -0.008336 0.167874
vn 0.985773 -0.008336 0.167874
vn 0.984645 -0.100905 0.142454
vn 0.984566 -0.102170 0.142096
vn -0.339874 0.330674 -0.880421
vn -0.339874 0.330674 -0.880421
vn -0.325268 0.425736 -0.844363
vn -0.324669 0.429128 -0.842876
vn -0.625809 -0.130350 0.769007
vn -0.625809 -0.130350 0.769007
vn -0.615879 -0.136876 0.775860
vn -0.616485 -0.136480 0.775448
vn 0.916889 -0.398567 -0.021424
vn 0.926803 -0.375450 0.008591
vn -0.242747 0.729388 -0.639583
vn -0.229902 0.760041 -0.607851
vn -0.598920 -0.193819 0.777000
vn -0.599452 -0.198225 0.775477
vn 0.863013 -0.485012 -0.141323
vn -0.124002 0.930845 -0.343732
vn -0.606213 -0.268962 0.748441
s off
g SMGR
usemtl blinn1SG
f 1/1/1 3/2/2 2/3/3
s 1
f 1/1/4 2/3/5 5/7/6 7/10/7
s 2
f 4/4/8 8/11/9 9/12/10
s 3
f 4/4/11 9/13/12 10/14/13
s 1
f 7/10/7 5/7/6 8/11/14 10/14/15
s 2
f 6/8/16 5/7/17 2/3/18 3/5/19
s 3
f 7/10/20 6/9/21 3/6/22 1/1/23
s 2
f 9/12/10 8/11/9 5/7/17 6/8/16
s 3
f 10/14/13 9/13/12 6/9/21 7/10/20
s 1
f 10/14/15 8/11/14 4/4/24
s off
f 11/15/25 13/16/26 12/17/27
s 4
f 11/15/28 12/17/29 16/18/30 15/19/31
s 5
f 12/17/32 13/20/33 17/21/34 16/18/35
s 6
f 13/22/36 11/15/37 15/19/38 17/23/39
s 4
f 15/19/31 16/18/30 19/24/40 18/25/41
s 5
f 16/18/35 17/21/34 20/26/42 19/24/43
s 6
f 17/23/39 15/19/38 18/25/44 20/27/45
s 4
f 18/25/41 19/24/40 14/28/46
s 5
f 19/24/43 20/26/42 14/28/47
s 6
f 20/27/45 18/25/44 14/28/48
s off
f 21/29/49 23/30/50 22/31/51
s 7
f 21/29/52 22/31/53 26/32/54 25/33/55
s 8
f 22/31/56 23/34/57 27/35/58 26/32/59
s 9
f 23/36/60 21/29/61 25/33/62 27/37/63
s 7
f 25/33/55 26/32/54 29/38/64 28/39/65
s 8
f 26/32/59 27/35/58 30/40/66 29/38/67
s 9
f 27/37/63 25/33/62 28/39/68 30/41/69
s 7
f 28/39/65 29/38/64 24/42/70
s 8
f 29/38/67 30/40/66 24/42/71
s 9
f 30/41/69 28/39/68 24/42/72
s off
f 31/43/73 33/44/74 32/45/75
s 10
f 31/43/76 32/45/77 36/46/78 35/47/79
s 11
f 32/45/80 33/48/81 37/49/82 36/46/83
s 12
f 33/50/84 31/43/85 35/47/86 37/51/87
s 10
f 35/47/79 36/46/78 39/52/88 38/53/89
s 11
f 36/46/83 37/49/82 40/54/90 39/52/91
s 12
f 37/51/87 35/47/86 38/53/92 40/55/93
s 10
f 38/53/89 39/52/88 34/56/94
s 11
f 39/52/91 40/54/90 34/56/95
s 12
f 40/55/93 38/53/92 34/56/96
s off
f 41/57/97 43/58/98 42/59/99
s 13
f 41/57/100 42/59/101 46/60/102 45/61/103
s 14
f 42/59/104 43/62/105 47/63/106 46/60/107
s 15
f 43/64/108 41/57/109 45/61/110 47/65/111
s 13
f 45/61/103 46/60/102 49/66/112 48/67/113
s 14
f 46/60/107 47/63/106 50/68/114 49/66/115
s 15
f 47/65/111 45/61/110 48/67/116 50/69/117
s 13
f 48/67/113 49/66/112 44/70/118
s 14
f 49/66/115 50/68/114 44/70/119
s 15
f 50/69/117 48/67/116 44/70/120
s off
f 51/71/121 53/72/122 52/73/123
s 16
f 51/71/124 52/73/125 56/74/126 55/75/127
s 17
f 52/73/128 53/76/129 57/77/130 56/74/131
s 18
f 53/78/132 51/71/133 55/75/134 57/79/135
s 16
f 55/75/127 56/74/126 59/80/136 58/81/137
s 17
f 56/74/131 57/77/130 60/82/138 59/80/139
s 18
f 57/79/135 55/75/134 58/81/140 60/83/141
s 16
f 58/81/137 59/80/136 54/84/142
s 17
f 59/80/139 60/82/138 54/84/143
s 18
f 60/83/141 58/81/140 54/84/144
