# This file uses centimeters as units for non-parametric coordinates.

mtllib SPH.mtl
g default
v 0.270598 0.817851 -0.270598
v 0.000000 0.817851 -0.382683
v -0.270598 0.817851 -0.270598
v -0.382683 0.817851 0.000000
v -0.270598 0.817851 0.270598
v 0.000000 0.817851 0.382683
v 0.270598 0.817851 0.270598
v 0.382683 0.817851 0.000000
v 0.500000 1.034623 -0.500000
v 0.000000 1.034623 -0.707107
v -0.500000 1.034623 -0.500000
v -0.707107 1.034623 0.000000
v -0.500000 1.034623 0.500000
v 0.000000 1.034623 0.707107
v 0.500000 1.034623 0.500000
v 0.707107 1.034623 0.000000
v 0.653281 1.359047 -0.653281
v 0.000000 1.359047 -0.923879
v -0.653281 1.359047 -0.653281
v -0.923879 1.359047 0.000000
v -0.653281 1.359047 0.653281
v 0.000000 1.359047 0.923879
v 0.653281 1.359047 0.653281
v 0.923880 1.359047 0.000000
v 0.707107 1.741730 -0.707107
v 0.000000 1.741730 -1.000000
v -0.707107 1.741730 -0.707107
v -1.000000 1.741730 0.000000
v -0.707107 1.741730 0.707107
v 0.000000 1.741730 1.000000
v 0.707107 1.741730 0.707107
v 1.000000 1.741730 0.000000
v 0.653281 2.124413 -0.653281
v 0.000000 2.124413 -0.923879
v -0.653281 2.124413 -0.653281
v -0.923879 2.124413 0.000000
v -0.653281 2.124413 0.653281
v 0.000000 2.124413 0.923879
v 0.653281 2.124413 0.653281
v 0.923880 2.124413 0.000000
v 0.500000 2.448837 -0.500000
v 0.000000 2.448837 -0.707107
v -0.500000 2.448837 -0.500000
v -0.707107 2.448837 0.000000
v -0.500000 2.448837 0.500000
v 0.000000 2.448837 0.707107
v 0.500000 2.448837 0.500000
v 0.707107 2.448837 0.000000
v 0.270598 2.665610 -0.270598
v 0.000000 2.665610 -0.382683
v -0.270598 2.665610 -0.270598
v -0.382683 2.665610 0.000000
v -0.270598 2.665610 0.270598
v 0.000000 2.665610 0.382683
v 0.270598 2.665610 0.270598
v 0.382683 2.665610 0.000000
v 0.000000 0.741730 0.000000
v 0.000000 2.741730 0.000000
vt 0.000000 0.125000
vt 0.125000 0.125000
vt 0.250000 0.125000
vt 0.375000 0.125000
vt 0.500000 0.125000
vt 0.625000 0.125000
vt 0.750000 0.125000
vt 0.875000 0.125000
vt 1.000000 0.125000
vt 0.000000 0.250000
vt 0.125000 0.250000
vt 0.250000 0.250000
vt 0.375000 0.250000
vt 0.500000 0.250000
vt 0.625000 0.250000
vt 0.750000 0.250000
vt 0.875000 0.250000
vt 1.000000 0.250000
vt 0.000000 0.375000
vt 0.125000 0.375000
vt 0.250000 0.375000
vt 0.375000 0.375000
vt 0.500000 0.375000
vt 0.625000 0.375000
vt 0.750000 0.375000
vt 0.875000 0.375000
vt 1.000000 0.375000
vt 0.000000 0.500000
vt 0.125000 0.500000
vt 0.250000 0.500000
vt 0.375000 0.500000
vt 0.500000 0.500000
vt 0.625000 0.500000
vt 0.750000 0.500000
vt 0.875000 0.500000
vt 1.000000 0.500000
vt 0.000000 0.625000
vt 0.125000 0.625000
vt 0.250000 0.625000
vt 0.375000 0.625000
vt 0.500000 0.625000
vt 0.625000 0.625000
vt 0.750000 0.625000
vt 0.875000 0.625000
vt 1.000000 0.625000
vt 0.000000 0.750000
vt 0.125000 0.750000
vt 0.250000 0.750000
vt 0.375000 0.750000
vt 0.500000 0.750000
vt 0.625000 0.750000
vt 0.750000 0.750000
vt 0.875000 0.750000
vt 1.000000 0.750000
vt 0.000000 0.875000
vt 0.125000 0.875000
vt 0.250000 0.875000
vt 0.375000 0.875000
vt 0.500000 0.875000
vt 0.625000 0.875000
vt 0.750000 0.875000
vt 0.875000 0.875000
vt 1.000000 0.875000
vt 0.062500 0.000000
vt 0.187500 0.000000
vt 0.312500 0.000000
vt 0.437500 0.000000
vt 0.562500 0.000000
vt 0.687500 0.000000
vt 0.812500 0.000000
vt 0.937500 0.000000
vt 0.062500 1.000000
vt 0.187500 1.000000
vt 0.312500 1.000000
vt 0.437500 1.000000
vt 0.562500 1.000000
vt 0.687500 1.000000
vt 0.812500 1.000000
vt 0.937500 1.000000
vn -0.224263 0.810291 0.541419
vn -0.224263 0.810291 0.541419
vn -0.224263 0.810291 0.541419
vn -0.224263 0.810291 0.541419
vn 0.224263 0.810291 0.541419
vn 0.224263 0.810291 0.541419
vn 0.224263 0.810291 0.541419
vn 0.224263 0.810291 0.541419
vn 0.541419 0.810291 0.224263
vn 0.541419 0.810291 0.224263
vn 0.541419 0.810291 0.224263
vn 0.541419 0.810291 0.224263
vn 0.541419 0.810291 -0.224263
vn 0.541419 0.810291 -0.224263
vn 0.541419 0.810291 -0.224263
vn 0.541419 0.810291 -0.224263
vn 0.224263 0.810291 -0.541419
vn 0.224263 0.810291 -0.541419
vn 0.224263 0.810291 -0.541419
vn 0.224263 0.810291 -0.541419
vn -0.224263 0.810291 -0.541419
vn -0.224263 0.810291 -0.541419
vn -0.224263 0.810291 -0.541419
vn -0.224263 0.810291 -0.541419
vn -0.541419 0.810291 -0.224263
vn -0.541419 0.810291 -0.224263
vn -0.541419 0.810291 -0.224263
vn -0.541419 0.810291 -0.224263
vn -0.541419 0.810291 0.224263
vn -0.541419 0.810291 0.224263
vn -0.541419 0.810291 0.224263
vn -0.541419 0.810291 0.224263
vn -0.325634 0.525289 0.786151
vn -0.325634 0.525289 0.786151
vn -0.325634 0.525289 0.786151
vn -0.325634 0.525289 0.786151
vn 0.325634 0.525289 0.786151
vn 0.325634 0.525289 0.786151
vn 0.325634 0.525289 0.786151
vn 0.325634 0.525289 0.786151
vn 0.786151 0.525289 0.325634
vn 0.786151 0.525289 0.325634
vn 0.786151 0.525289 0.325634
vn 0.786151 0.525289 0.325634
vn 0.786151 0.525289 -0.325634
vn 0.786151 0.525289 -0.325634
vn 0.786151 0.525289 -0.325634
vn 0.786151 0.525289 -0.325634
vn 0.325634 0.525289 -0.786151
vn 0.325634 0.525289 -0.786151
vn 0.325634 0.525289 -0.786151
vn 0.325634 0.525289 -0.786151
vn -0.325634 0.525289 -0.786151
vn -0.325634 0.525289 -0.786151
vn -0.325634 0.525289 -0.786151
vn -0.325634 0.525289 -0.786151
vn -0.786151 0.525289 -0.325634
vn -0.786151 0.525289 -0.325634
vn -0.786151 0.525289 -0.325634
vn -0.786151 0.525289 -0.325634
vn -0.786151 0.525289 0.325635
vn -0.786151 0.525289 0.325635
vn -0.786151 0.525289 0.325635
vn -0.786151 0.525289 0.325635
vn -0.376381 0.180744 0.908663
vn -0.376381 0.180744 0.908663
vn -0.376381 0.180744 0.908663
vn -0.376381 0.180744 0.908663
vn 0.376381 0.180744 0.908663
vn 0.376381 0.180744 0.908663
vn 0.376381 0.180744 0.908663
vn 0.376381 0.180744 0.908663
vn 0.908663 0.180744 0.376381
vn 0.908664 0.180744 0.376381
vn 0.908664 0.180744 0.376381
vn 0.908663 0.180744 0.376381
vn 0.908663 0.180744 -0.376381
vn 0.908664 0.180744 -0.376381
vn 0.908664 0.180744 -0.376381
vn 0.908663 0.180744 -0.376381
vn 0.376381 0.180744 -0.908663
vn 0.376381 0.180744 -0.908663
vn 0.376381 0.180744 -0.908663
vn 0.376381 0.180744 -0.908663
vn -0.376381 0.180744 -0.908663
vn -0.376381 0.180744 -0.908663
vn -0.376381 0.180744 -0.908663
vn -0.376381 0.180744 -0.908663
vn -0.908663 0.180745 -0.376381
vn -0.908663 0.180745 -0.376381
vn -0.908663 0.180745 -0.376381
vn -0.908663 0.180745 -0.376381
vn -0.908663 0.180744 0.376381
vn -0.908663 0.180744 0.376381
vn -0.908663 0.180744 0.376381
vn -0.908663 0.180744 0.376381
vn -0.376381 -0.180744 0.908663
vn -0.376381 -0.180744 0.908663
vn -0.376381 -0.180744 0.908663
vn -0.376381 -0.180744 0.908663
vn 0.376381 -0.180744 0.908663
vn 0.376381 -0.180744 0.908663
vn 0.376381 -0.180744 0.908663
vn 0.376381 -0.180744 0.908663
vn 0.908663 -0.180744 0.376381
vn 0.908663 -0.180744 0.376381
vn 0.908663 -0.180744 0.376381
vn 0.908663 -0.180744 0.376381
vn 0.908663 -0.180744 -0.376381
vn 0.908663 -0.180744 -0.376381
vn 0.908663 -0.180744 -0.376381
vn 0.908663 -0.180744 -0.376381
vn 0.376381 -0.180744 -0.908663
vn 0.376381 -0.180744 -0.908663
vn 0.376381 -0.180744 -0.908663
vn 0.376381 -0.180744 -0.908663
vn -0.376381 -0.180744 -0.908663
vn -0.376381 -0.180744 -0.908663
vn -0.376381 -0.180744 -0.908663
vn -0.376381 -0.180744 -0.908663
vn -0.908663 -0.180745 -0.376381
vn -0.908663 -0.180745 -0.376381
vn -0.908663 -0.180745 -0.376381
vn -0.908663 -0.180745 -0.376381
vn -0.908663 -0.180744 0.376381
vn -0.908663 -0.180744 0.376381
vn -0.908663 -0.180744 0.376381
vn -0.908663 -0.180744 0.376381
vn -0.325634 -0.525289 0.786151
vn -0.325634 -0.525289 0.786151
vn -0.325634 -0.525289 0.786151
vn -0.325634 -0.525289 0.786151
vn 0.325634 -0.525289 0.786151
vn 0.325634 -0.525289 0.786151
vn 0.325634 -0.525289 0.786151
vn 0.325634 -0.525289 0.786151
vn 0.786151 -0.525289 0.325635
vn 0.786151 -0.525289 0.325635
vn 0.786151 -0.525289 0.325635
vn 0.786151 -0.525289 0.325635
vn 0.786151 -0.525289 -0.325634
vn 0.786151 -0.525289 -0.325634
vn 0.786151 -0.525289 -0.325634
vn 0.786151 -0.525289 -0.325634
vn 0.325634 -0.525289 -0.786151
vn 0.325634 -0.525289 -0.786151
vn 0.325634 -0.525289 -0.786151
vn 0.325634 -0.525289 -0.786151
vn -0.325634 -0.525289 -0.786151
vn -0.325634 -0.525289 -0.786151
vn -0.325634 -0.525289 -0.786151
vn -0.325634 -0.525289 -0.786151
vn -0.786151 -0.525289 -0.325634
vn -0.786151 -0.525289 -0.325634
vn -0.786151 -0.525289 -0.325634
vn -0.786151 -0.525289 -0.325634
vn -0.786151 -0.525289 0.325634
vn -0.786151 -0.525289 0.325634
vn -0.786151 -0.525289 0.325634
vn -0.786151 -0.525289 0.325634
vn -0.224263 -0.810291 0.541419
vn -0.224263 -0.810291 0.541419
vn -0.224263 -0.810291 0.541419
vn -0.224263 -0.810291 0.541419
vn 0.224263 -0.810291 0.541419
vn 0.224263 -0.810291 0.541419
vn 0.224263 -0.810291 0.541419
vn 0.224263 -0.810291 0.541419
vn 0.541419 -0.810291 0.224263
vn 0.541419 -0.810291 0.224263
vn 0.541419 -0.810291 0.224263
vn 0.541419 -0.810291 0.224263
vn 0.541419 -0.810291 -0.224264
vn 0.541419 -0.810291 -0.224264
vn 0.541419 -0.810291 -0.224264
vn 0.541419 -0.810291 -0.224264
vn 0.224263 -0.810291 -0.541419
vn 0.224263 -0.810291 -0.541419
vn 0.224263 -0.810291 -0.541419
vn 0.224263 -0.810291 -0.541419
vn -0.224263 -0.810291 -0.541420
vn -0.224263 -0.810291 -0.541420
vn -0.224263 -0.810291 -0.541420
vn -0.224263 -0.810291 -0.541420
vn -0.541419 -0.810291 -0.224263
vn -0.541419 -0.810291 -0.224263
vn -0.541419 -0.810291 -0.224263
vn -0.541419 -0.810291 -0.224263
vn -0.541419 -0.810291 0.224264
vn -0.541419 -0.810291 0.224264
vn -0.541419 -0.810291 0.224264
vn -0.541419 -0.810291 0.224264
vn -0.080546 0.977599 0.194457
vn -0.080547 0.977599 0.194457
vn -0.080547 0.977599 0.194457
vn 0.080547 0.977599 0.194457
vn 0.080547 0.977599 0.194457
vn 0.080546 0.977599 0.194457
vn 0.194457 0.977599 0.080546
vn 0.194457 0.977599 0.080546
vn 0.194457 0.977599 0.080546
vn 0.194457 0.977599 -0.080546
vn 0.194457 0.977599 -0.080546
vn 0.194457 0.977599 -0.080546
vn 0.080547 0.977599 -0.194457
vn 0.080547 0.977599 -0.194456
vn 0.080547 0.977599 -0.194457
vn -0.080547 0.977599 -0.194457
vn -0.080547 0.977599 -0.194456
vn -0.080547 0.977599 -0.194457
vn -0.194457 0.977599 -0.080547
vn -0.194457 0.977599 -0.080547
vn -0.194457 0.977599 -0.080547
vn -0.194457 0.977599 0.080547
vn -0.194457 0.977599 0.080547
vn -0.194457 0.977599 0.080547
vn -0.080547 -0.977598 0.194458
vn -0.080547 -0.977598 0.194458
vn -0.080547 -0.977598 0.194458
vn 0.080547 -0.977598 0.194458
vn 0.080547 -0.977598 0.194458
vn 0.080547 -0.977598 0.194458
vn 0.194457 -0.977599 0.080546
vn 0.194457 -0.977599 0.080546
vn 0.194457 -0.977598 0.080546
vn 0.194457 -0.977599 -0.080546
vn 0.194457 -0.977598 -0.080546
vn 0.194457 -0.977598 -0.080546
vn 0.080547 -0.977598 -0.194458
vn 0.080547 -0.977598 -0.194458
vn 0.080547 -0.977598 -0.194458
vn -0.080547 -0.977598 -0.194458
vn -0.080547 -0.977598 -0.194458
vn -0.080547 -0.977598 -0.194458
vn -0.194457 -0.977599 -0.080546
vn -0.194457 -0.977599 -0.080546
vn -0.194457 -0.977599 -0.080546
vn -0.194457 -0.977599 0.080546
vn -0.194457 -0.977599 0.080546
vn -0.194457 -0.977599 0.080546
s off
g pSphere1
usemtl initialShadingGroup
f 1/1/1 9/10/2 10/11/3 2/2/4
f 2/2/5 10/11/6 11/12/7 3/3/8
f 3/3/9 11/12/10 12/13/11 4/4/12
f 4/4/13 12/13/14 13/14/15 5/5/16
f 5/5/17 13/14/18 14/15/19 6/6/20
f 6/6/21 14/15/22 15/16/23 7/7/24
f 7/7/25 15/16/26 16/17/27 8/8/28
f 8/8/29 16/17/30 9/18/31 1/9/32
f 9/10/33 17/19/34 18/20/35 10/11/36
f 10/11/37 18/20/38 19/21/39 11/12/40
f 11/12/41 19/21/42 20/22/43 12/13/44
f 12/13/45 20/22/46 21/23/47 13/14/48
f 13/14/49 21/23/50 22/24/51 14/15/52
f 14/15/53 22/24/54 23/25/55 15/16/56
f 15/16/57 23/25/58 24/26/59 16/17/60
f 16/17/61 24/26/62 17/27/63 9/18/64
f 17/19/65 25/28/66 26/29/67 18/20/68
f 18/20/69 26/29/70 27/30/71 19/21/72
f 19/21/73 27/30/74 28/31/75 20/22/76
f 20/22/77 28/31/78 29/32/79 21/23/80
f 21/23/81 29/32/82 30/33/83 22/24/84
f 22/24/85 30/33/86 31/34/87 23/25/88
f 23/25/89 31/34/90 32/35/91 24/26/92
f 24/26/93 32/35/94 25/36/95 17/27/96
f 25/28/97 33/37/98 34/38/99 26/29/100
f 26/29/101 34/38/102 35/39/103 27/30/104
f 27/30/105 35/39/106 36/40/107 28/31/108
f 28/31/109 36/40/110 37/41/111 29/32/112
f 29/32/113 37/41/114 38/42/115 30/33/116
f 30/33/117 38/42/118 39/43/119 31/34/120
f 31/34/121 39/43/122 40/44/123 32/35/124
f 32/35/125 40/44/126 33/45/127 25/36/128
f 33/37/129 41/46/130 42/47/131 34/38/132
f 34/38/133 42/47/134 43/48/135 35/39/136
f 35/39/137 43/48/138 44/49/139 36/40/140
f 36/40/141 44/49/142 45/50/143 37/41/144
f 37/41/145 45/50/146 46/51/147 38/42/148
f 38/42/149 46/51/150 47/52/151 39/43/152
f 39/43/153 47/52/154 48/53/155 40/44/156
f 40/44/157 48/53/158 41/54/159 33/45/160
f 41/46/161 49/55/162 50/56/163 42/47/164
f 42/47/165 50/56/166 51/57/167 43/48/168
f 43/48/169 51/57/170 52/58/171 44/49/172
f 44/49/173 52/58/174 53/59/175 45/50/176
f 45/50/177 53/59/178 54/60/179 46/51/180
f 46/51/181 54/60/182 55/61/183 47/52/184
f 47/52/185 55/61/186 56/62/187 48/53/188
f 48/53/189 56/62/190 49/63/191 41/54/192
f 2/2/193 57/64/194 1/1/195
f 3/3/196 57/65/197 2/2/198
f 4/4/199 57/66/200 3/3/201
f 5/5/202 57/67/203 4/4/204
f 6/6/205 57/68/206 5/5/207
f 7/7/208 57/69/209 6/6/210
f 8/8/211 57/70/212 7/7/213
f 1/9/214 57/71/215 8/8/216
f 49/55/217 58/72/218 50/56/219
f 50/56/220 58/73/221 51/57/222
f 51/57/223 58/74/224 52/58/225
f 52/58/226 58/75/227 53/59/228
f 53/59/229 58/76/230 54/60/231
f 54/60/232 58/77/233 55/61/234
f 55/61/235 58/78/236 56/62/237
f 56/62/238 58/79/239 49/63/240
